<svg width="26" height="29" viewBox="0 0 26 29" fill="none" xmlns="http://www.w3.org/2000/svg">
<path fill-rule="evenodd" clip-rule="evenodd" d="M20 23.5V21.5C20 19.8432 18.6569 18.5 17 18.5H9C7.34314 18.5 6 19.8432 6 21.5V23.5C6 23.8573 5.80945 24.1874 5.5 24.3661C5.19055 24.5447 4.80945 24.5447 4.5 24.3661C4.19055 24.1874 4 23.8573 4 23.5V21.5C4 18.7386 6.23853 16.5 9 16.5H17C19.7615 16.5 22 18.7386 22 21.5V23.5C22 23.8573 21.8094 24.1874 21.5 24.3661C21.1906 24.5447 20.8094 24.5447 20.5 24.3661C20.1906 24.1874 20 23.8573 20 23.5V23.5ZM8 9.50003C8 6.73862 10.2385 4.50003 13 4.50003C15.7614 4.50003 18 6.73862 18 9.50003C18 12.2614 15.7615 14.5 13 14.5C10.2385 14.5 8 12.2614 8 9.50003V9.50003ZM10 9.50003C10 11.1569 11.3431 12.5 13 12.5C14.6569 12.5 16 11.1569 16 9.50003C16 7.84317 14.6569 6.50003 13 6.50003C11.3431 6.50003 10 7.84317 10 9.50003V9.50003Z" fill="#939393"/>
</svg>
