<svg width="21" height="20" viewBox="0 0 21 20" fill="none" xmlns="http://www.w3.org/2000/svg">
<path fill-rule="evenodd" clip-rule="evenodd" d="M15.006 15.662L10.764 11.42L6.521 15.662C6.12854 16.0402 5.50549 16.0344 5.12 15.649C4.73462 15.2635 4.72888 14.6405 5.10706 14.248L9.3501 10.0051L5.10706 5.76208C4.72888 5.36963 4.73462 4.74658 5.12 4.36115C5.50549 3.97571 6.12854 3.96991 6.521 4.34814L10.764 8.59009L15.006 4.34808C15.3965 3.95752 16.0297 3.9574 16.4204 4.34778C16.811 4.73816 16.8114 5.37134 16.421 5.76215L12.178 10.006L16.421 14.249C16.8114 14.6398 16.811 15.2729 16.4204 15.6633C16.0297 16.0537 15.3965 16.0536 15.006 15.663V15.662Z" fill="#F76B1D"/>
</svg>
