<svg width="30" height="37" viewBox="0 0 30 37" fill="none" xmlns="http://www.w3.org/2000/svg">
<path fill-rule="evenodd" clip-rule="evenodd" d="M18 32.4357H17.93H12C10.8085 32.4637 9.61619 32.4303 8.42802 32.3357C7.53923 32.3602 6.67955 32.018 6.05064 31.3896C5.42173 30.761 5.07908 29.9015 5.10301 29.0127C5.00676 27.823 4.97239 26.6291 5.00004 25.4358V11.4357C4.97209 10.2441 5.00541 9.05186 5.10002 7.86369C5.07554 6.97496 5.41771 6.11522 6.04619 5.48631C6.67473 4.8574 7.53422 4.51475 8.42302 4.53868C9.61277 4.44243 10.8067 4.40806 12.0001 4.43571H17.8401C17.888 4.42784 17.9365 4.42351 17.9851 4.42271C18.0553 4.42167 18.1254 4.42839 18.1941 4.44273C18.9653 4.37639 19.7409 4.49888 20.4541 4.79979C22.0581 5.97026 23.4701 7.38353 24.6391 8.98875C24.9387 9.70018 25.0608 10.4737 24.9951 11.2428C25.0191 11.362 25.0212 11.4847 25.0011 11.6047V25.4357C25.0297 26.628 24.9964 27.8209 24.9011 29.0097C24.925 29.8985 24.5824 30.758 23.9535 31.3865C23.3246 32.015 22.4648 32.3572 21.5761 32.3327C20.4369 32.4254 19.2937 32.4587 18.1511 32.4327L18 32.4357ZM8.64805 6.52269C8.21513 6.44536 7.77171 6.58482 7.46092 6.89598C7.15007 7.2072 7.01121 7.65074 7.08909 8.08366C7.00602 8.82963 7.00004 9.93864 7.00004 11.4336V25.4336C7.00004 26.9336 7.00505 28.0397 7.08903 28.7856C7.0117 29.2185 7.1511 29.6619 7.46238 29.9726C7.77366 30.2832 8.21733 30.4219 8.65007 30.3436C9.39598 30.4276 10.505 30.4336 12 30.4336H18H18.07C19.524 30.4336 20.617 30.4266 21.35 30.3436C21.7826 30.4209 22.2257 30.282 22.5367 29.9715C22.8477 29.6611 22.9875 29.2184 22.9111 28.7856C22.995 28.0397 23 26.9306 23 25.4336V12.4357H18C17.4477 12.4357 17 11.988 17 11.4357V6.43571H12C10.5 6.43571 9.39402 6.44169 8.64805 6.52574V6.52269ZM19 10.4357H22.9761C22.9711 10.2447 22.9279 10.0567 22.849 9.88273C21.8768 8.66429 20.7724 7.55754 19.556 6.58275C19.3808 6.50413 19.1919 6.46061 19 6.45469L19 10.4357ZM20 27.4357H9.97203C9.41978 27.428 8.97838 26.9741 8.986 26.4219C8.99363 25.8697 9.44743 25.4281 9.99968 25.4357H20.029C20.3863 25.4384 20.715 25.6315 20.8913 25.9422C21.0676 26.253 21.0647 26.6341 20.8838 26.9422C20.7029 27.2503 20.3713 27.4384 20.014 27.4357H20ZM9.97203 23.4357C9.41978 23.428 8.97838 22.9741 8.986 22.4219C8.99363 21.8697 9.44743 21.4281 9.99968 21.4357H20.029C20.3863 21.4409 20.7137 21.6363 20.8879 21.9483C21.062 22.2602 21.0564 22.6415 20.8733 22.9483C20.6902 23.255 20.3573 23.4409 20 23.4357H9.97203V23.4357ZM20 19.4357H9.97203C9.41978 19.428 8.97838 18.9741 8.986 18.4219C8.99363 17.8697 9.44743 17.4281 9.99968 17.4357H20.029C20.5812 17.4397 21.0257 17.8905 21.0218 18.4427C21.018 18.9949 20.5672 19.4395 20.015 19.4357H20Z" fill="white"/>
</svg>
