<svg width="24" height="24" viewBox="0 0 24 24" fill="none" xmlns="http://www.w3.org/2000/svg">
<path fill-rule="evenodd" clip-rule="evenodd" d="M7.16509 19.8894C6.34683 19.9236 5.55154 19.6139 4.97192 19.0353C4.39226 18.4567 4.08113 17.662 4.11379 16.8436C4.01633 15.6403 3.98146 14.4327 4.00924 13.2258C3.98187 12.0192 4.01615 10.8119 4.11195 9.60868C4.07523 8.79041 4.38404 7.99436 4.96291 7.41484C5.54182 6.83537 6.33756 6.52577 7.15586 6.56162C8.35969 6.46627 9.56763 6.43237 10.7749 6.46011H10.7927C11.0125 6.4633 11.2138 6.58347 11.3209 6.77538C11.428 6.96725 11.4246 7.20173 11.312 7.39044C11.1994 7.57912 10.9946 7.69343 10.7749 7.69024C9.24031 7.69024 8.09815 7.69392 7.29367 7.78496C6.75549 7.71716 6.21623 7.90201 5.83287 8.28575C5.44951 8.66949 5.26515 9.20891 5.33347 9.74702C5.24243 10.5515 5.23936 11.6931 5.23936 13.2258C5.23936 14.7586 5.24487 15.8995 5.33655 16.704C5.27055 17.2431 5.45683 17.7825 5.84139 18.166C6.22599 18.5495 6.76589 18.7342 7.30478 18.6667C8.10803 18.7577 9.24771 18.7614 10.7761 18.7614C12.3045 18.7614 13.4449 18.7571 14.2481 18.6649C14.7879 18.7318 15.3284 18.546 15.7129 18.1614C16.0975 17.7769 16.2832 17.2364 16.2164 16.6967C16.3086 15.8934 16.3135 14.7524 16.3135 13.2228V13.2055C16.3183 12.8659 16.5974 12.5944 16.9371 12.5991C17.2767 12.6037 17.5483 12.8829 17.5436 13.2225C17.5711 14.4281 17.5358 15.6343 17.4378 16.8363C17.4708 17.6547 17.1599 18.4496 16.5804 19.0285C16.0008 19.6073 15.2055 19.9173 14.3871 19.8833C13.1858 19.982 11.9801 20.0181 10.7749 19.9916H10.5904C9.44765 20.0165 8.30436 19.9824 7.16509 19.8894V19.8894ZM10.1599 14.456C9.8202 14.456 9.54484 14.1806 9.54484 13.8409V11.9957C9.54473 11.8327 9.60929 11.6763 9.72443 11.5609L17.1051 4.18008C17.3453 3.93997 17.7347 3.93997 17.9748 4.18008L19.82 6.02528C20.0601 6.26543 20.0601 6.6548 19.82 6.89498L12.4393 14.2758C12.3242 14.391 12.168 14.4558 12.0051 14.456H10.1599ZM10.775 12.2503V13.2258H11.7504L16.6709 8.30531L15.6954 7.32982L10.775 12.2503ZM16.5652 6.46011L17.5406 7.4356L18.5155 6.46011L17.5406 5.48462L16.5652 6.46011Z" fill="white"/>
</svg>
