<svg width="35" height="34" viewBox="0 0 35 34" fill="none" xmlns="http://www.w3.org/2000/svg">
<path fill-rule="evenodd" clip-rule="evenodd" d="M18.033 4.42566C18.001 4.42566 17.969 4.42566 17.933 4.42566H17.925C17.6438 4.44257 17.3827 4.57721 17.206 4.79663L8.31902 12.7966L5.32503 15.4896C5.05944 15.729 4.94176 16.0918 5.01625 16.4415C5.09078 16.7911 5.34621 17.0744 5.68627 17.1846C6.02636 17.2949 6.3994 17.2153 6.66487 16.9758L6.99501 16.6757V25.4357C6.98052 26.0503 6.99886 26.6651 7.05001 27.2777C7.04998 28.4374 7.99013 29.3776 9.14989 29.3776C9.76512 29.4301 10.3827 29.4495 11 29.4357H12C12.6152 29.4503 13.2308 29.4319 13.844 29.3807C15.0038 29.3807 15.944 28.4405 15.944 27.2807C15.9956 26.6671 16.0143 26.0512 16 25.4357V23.4357C16 22.6887 16 22.1407 16.041 21.8167C16.0499 21.7196 16.0676 21.6235 16.094 21.5297C16.1878 21.5031 16.2839 21.4854 16.381 21.4767C16.7 21.4357 17.252 21.4357 18 21.4357C18.748 21.4357 19.3 21.4357 19.619 21.4767C19.7161 21.4853 19.8122 21.5031 19.906 21.5297C19.9325 21.6235 19.9503 21.7195 19.959 21.8167C19.995 22.1406 20 22.6887 20 23.4357V25.4357C19.9853 26.0509 20.0036 26.6664 20.055 27.2797C20.055 28.4395 20.9952 29.3797 22.155 29.3796C22.7685 29.4312 23.3844 29.4499 24 29.4357H25C25.6152 29.4504 26.2308 29.432 26.844 29.3807C27.401 29.3807 27.9351 29.1594 28.3289 28.7656C28.7228 28.3718 28.944 27.8376 28.944 27.2806C28.9956 26.6671 29.0143 26.0512 29 25.4357L29 16.6816L29.33 16.9816C29.5954 17.2212 29.9685 17.3008 30.3086 17.1907C30.6487 17.0805 30.9041 16.7972 30.9787 16.4476C31.0533 16.098 30.9357 15.7352 30.6702 15.4958L30.67 15.4956L27.676 12.8026L18.793 4.80261V4.80261C18.6083 4.57166 18.3307 4.43439 18.035 4.42761L18.033 4.42566ZM18 6.78265L22.07 10.4446L26.341 14.2886C26.7598 14.6676 26.9988 15.2059 26.999 15.7706V25.4357C26.999 26.1827 26.999 26.7307 26.958 27.0547C27.0021 27.1522 26.9812 27.2667 26.9056 27.3422C26.83 27.4178 26.7155 27.4387 26.6181 27.3947C26.294 27.4317 25.747 27.4357 24.999 27.4357H23.999C23.252 27.4357 22.704 27.4357 22.3801 27.3947C22.2829 27.3859 22.1869 27.3682 22.0931 27.3417C22.0665 27.2479 22.0488 27.1519 22.0401 27.0547C22 26.7307 22 26.1837 22 25.4357V23.4357C22.0145 22.8212 21.9961 22.2063 21.945 21.5937C21.9451 20.4339 21.0049 19.4937 19.8451 19.4937C18.6168 19.4207 17.3853 19.4207 16.157 19.4937C14.9972 19.4937 14.057 20.4339 14.057 21.5937C14.0052 22.2062 13.9862 22.8211 14 23.4357V25.4357C14 26.1827 14 26.7307 13.959 27.0547C13.9502 27.1517 13.9324 27.2478 13.906 27.3417C13.8122 27.3682 13.7161 27.3859 13.619 27.3947C13.295 27.4316 12.748 27.4357 12 27.4357H11C10.2521 27.4357 9.70504 27.4357 9.38106 27.3947C9.28395 27.386 9.18785 27.3683 9.09407 27.3417C9.06758 27.2479 9.04985 27.1518 9.0411 27.0547C9.00002 26.7307 9.00002 26.1827 9.00002 25.4357V15.7717C9.00002 15.2054 9.2405 14.6653 9.66164 14.286L13.93 10.4456L18 6.78363V6.78265Z" fill="white"/>
</svg>
