<svg width="26" height="25" viewBox="0 0 26 25" fill="none" xmlns="http://www.w3.org/2000/svg">
<path fill-rule="evenodd" clip-rule="evenodd" d="M19.621 20.259L16.0011 16.633C13.1757 18.8641 9.10115 18.5066 6.7076 15.8176C4.31404 13.1287 4.43099 9.04013 6.9742 6.49234C9.51753 3.94449 13.6058 3.82034 16.299 6.20908C18.9923 8.59787 19.357 12.6718 17.1311 15.501L20.7511 19.127C20.9666 19.326 21.056 19.627 20.984 19.9113C20.9118 20.1956 20.6899 20.4178 20.4057 20.4901C20.1214 20.5623 19.8204 20.4733 19.6212 20.258L19.621 20.259ZM6.6031 11.291C6.59847 13.3811 7.84773 15.2699 9.77278 16.0837C11.6978 16.8975 13.9232 16.4774 15.4191 15.0179C15.4342 15 15.4501 14.983 15.4661 14.966C15.4821 14.9489 15.5002 14.933 15.5181 14.918C17.1605 13.2401 17.4748 10.6697 16.285 8.64554C15.0953 6.62137 12.6966 5.6456 10.4316 6.26437C8.1667 6.88321 6.59737 8.94302 6.60213 11.291H6.6031Z" fill="#939393"/>
</svg>
