<svg width="31" height="27" viewBox="0 0 31 27" fill="none" xmlns="http://www.w3.org/2000/svg">
<path fill-rule="evenodd" clip-rule="evenodd" d="M11.465 6.43567H7C6.44775 6.43567 6 6.88336 6 7.43567V19.4357C6 19.988 6.44775 20.4357 7 20.4357H24C24.5522 20.4357 25 19.988 25 19.4357V10.4357C25 9.88336 24.5522 9.43567 24 9.43567H14C13.6658 9.43573 13.3535 9.26874 13.168 8.99066L11.465 6.43567ZM14.5349 7.43567H24C25.6569 7.43567 27 8.77881 27 10.4357V19.4357C27 21.0925 25.6569 22.4357 24 22.4357H7C5.34314 22.4357 4 21.0925 4 19.4357V7.43567C4 5.77881 5.34314 4.43567 7 4.43567H12C12.3342 4.43561 12.6465 4.6026 12.832 4.88068L14.5349 7.43567Z" fill="white"/>
</svg>
