<svg width="38" height="32" viewBox="0 0 38 32" fill="none" xmlns="http://www.w3.org/2000/svg">
<path fill-rule="evenodd" clip-rule="evenodd" d="M11 4.4357C9.99912 4.41226 8.99778 4.44101 7.99998 4.5217C7.22153 4.50552 6.47019 4.80747 5.91941 5.35782C5.36875 5.90817 5.06626 6.65933 5.08201 7.43771C5.00107 8.43558 4.97239 9.43692 4.99595 10.4377V17.4377C4.99595 19.6877 4.85593 21.0187 5.63096 22.1647C6.04282 22.7237 6.64939 23.1076 7.33091 23.2407C7.89097 23.3512 8.46018 23.4082 9.03086 23.4107C9.04282 23.7717 9.05491 24.1267 9.08982 24.4337C9.07358 25.2121 9.37559 25.9635 9.92588 26.5143C10.4763 27.065 11.2274 27.3675 12.0058 27.3517C12.5378 27.4117 13.1788 27.4267 13.8868 27.4317C13.9243 27.4353 13.9621 27.4366 13.9999 27.4358L27 27.4357C28.0008 27.4593 29.0022 27.4306 30 27.3497C30.7784 27.3654 31.5295 27.0629 32.0799 26.5122C32.6302 25.9614 32.9322 25.2101 32.916 24.4316C32.9967 23.4338 33.0254 22.4325 33.002 21.4317V17.4317C33.0024 17.3919 33.0003 17.3521 32.9959 17.3127C32.9901 16.6067 32.976 15.9666 32.9161 15.4356C32.9323 14.6572 32.6303 13.9058 32.0801 13.3551C31.5296 12.8044 30.7785 12.5019 30.0001 12.5176C29.6911 12.4826 29.3331 12.4716 28.971 12.4586C28.9909 12.3754 29.0001 12.2901 28.9981 12.2046C29.0172 11.4055 28.9569 10.6066 28.818 9.81955C28.6954 9.13132 28.3198 8.51383 27.765 8.08847C26.62 7.28854 25.275 7.43051 23.001 7.43051H20.3469C19.3602 7.48654 18.3718 7.35385 17.4349 7.03952C17.0388 6.87058 16.6939 6.60056 16.4349 6.25644C15.9693 5.70462 15.3833 5.26706 14.7219 4.97751C13.553 4.56052 12.3138 4.3754 11.074 4.43247V4.43253H11.004L11 4.4357ZM11 6.4357C11.9989 6.37967 12.9992 6.5123 13.949 6.82669C14.3484 6.99387 14.6963 7.26407 14.957 7.60971C15.4188 8.15994 16.0002 8.59738 16.657 8.8887C17.8388 9.314 19.0935 9.49991 20.348 9.4357H23C24.2132 9.3447 25.4333 9.44595 26.615 9.73569C26.7149 9.80869 26.777 9.86069 26.8609 10.2517C26.9638 10.9068 27.009 11.5697 26.9959 12.2328C26.9957 12.3023 27.0027 12.3717 27.0169 12.4397L24.3449 12.4397C23.3581 12.4955 22.3698 12.3628 21.4328 12.0487C21.0367 11.8795 20.6919 11.6096 20.4328 11.2656C19.9674 10.7137 19.3813 10.2762 18.7199 9.98666C17.5499 9.56967 16.3098 9.38455 15.0689 9.44168H14.999C13.9981 9.41824 12.9968 9.44699 11.999 9.52768C11.2206 9.51151 10.4692 9.81345 9.91843 10.3638C9.36777 10.9142 9.06528 11.6653 9.08103 12.4437C9.00022 13.4415 8.97153 14.4428 8.99509 15.4437L8.99497 21.4127C8.58506 21.4062 8.17612 21.3677 7.77207 21.2976C7.40098 21.2127 7.35898 21.1597 7.28599 21.0517C7.00413 19.8684 6.90769 18.6485 7.0001 17.4356L6.99998 10.4357C6.99998 9.18869 7.00596 8.26767 7.07395 7.66269C7.14194 7.05771 7.25901 6.85068 7.33799 6.7717C7.41697 6.69272 7.62205 6.57773 8.22703 6.50968C8.83201 6.44162 9.754 6.4357 11 6.4357V6.4357ZM15 11.4357C15.9989 11.3797 16.9992 11.5123 17.949 11.8267C18.3484 11.9939 18.6963 12.2641 18.957 12.6097C19.4188 13.1599 20.0002 13.5974 20.657 13.8887C21.8388 14.314 23.0935 14.4999 24.348 14.4357H27C28.2469 14.4357 29.1679 14.4417 29.774 14.5097C30.3801 14.5777 30.586 14.6947 30.665 14.7737C30.744 14.8526 30.859 15.0567 30.927 15.6626C30.995 16.2686 31.001 17.1906 31.001 18.4356V21.4356C31.001 22.6816 30.995 23.6037 30.927 24.2086C30.859 24.8136 30.744 25.0186 30.665 25.0976C30.586 25.1766 30.38 25.2976 29.774 25.3616C29.1681 25.4256 28.248 25.4356 27 25.4356H15C13.753 25.4356 12.832 25.4296 12.227 25.3616C11.622 25.2936 11.415 25.1766 11.336 25.0976C11.2571 25.0186 11.1421 24.8136 11.0741 24.2086C11.0061 23.6037 11 22.6817 11 21.4357V15.4357C11 14.1887 11.006 13.2677 11.074 12.6627C11.1419 12.0577 11.259 11.8507 11.338 11.7717C11.417 11.6927 11.622 11.5777 12.227 11.5097C12.832 11.4416 13.754 11.4357 15 11.4357V11.4357Z" fill="white"/>
</svg>
