<svg width="24" height="24" viewBox="0 0 24 24" fill="none" xmlns="http://www.w3.org/2000/svg">
<path fill-rule="evenodd" clip-rule="evenodd" d="M11 18V13H6C5.6427 13 5.31262 12.8094 5.13403 12.5C4.95532 12.1906 4.95532 11.8094 5.13403 11.5C5.31262 11.1906 5.6427 11 6 11H11V6C11 5.64276 11.1906 5.31262 11.5 5.13397C11.8094 4.95532 12.1906 4.95532 12.5 5.13397C12.8094 5.31262 13 5.64276 13 6V11H18C18.3573 11 18.6874 11.1906 18.866 11.5C19.0447 11.8094 19.0447 12.1906 18.866 12.5C18.6874 12.8094 18.3573 13 18 13H13V18C13 18.3572 12.8094 18.6874 12.5 18.866C12.1906 19.0447 11.8094 19.0447 11.5 18.866C11.1906 18.6874 11 18.3572 11 18V18Z" fill="#B7FF6F"/>
</svg>
