<svg width="29" height="37" viewBox="0 0 29 37" fill="none" xmlns="http://www.w3.org/2000/svg">
<path fill-rule="evenodd" clip-rule="evenodd" d="M17.0096 32.0131H11.0096C9.81797 32.0411 8.62571 32.0077 7.43754 31.9131C6.54875 31.9376 5.68907 31.5954 5.06016 30.967C4.43126 30.3384 4.0886 29.4789 4.11253 28.5901C4.01628 27.4004 3.98192 26.2065 4.00956 25.0132V11.0131C3.98161 9.82145 4.01494 8.62925 4.10954 7.44108C4.08506 6.55235 4.42723 5.69261 5.05571 5.0637C5.68425 4.4348 6.54374 4.09215 7.43254 4.11607C8.6223 4.01982 9.81627 3.98546 11.0096 4.0131H16.8496C16.8976 4.00523 16.946 4.0009 16.9946 4.0001C17.0648 3.99907 17.1349 4.00578 17.2036 4.02012C17.9748 3.95378 18.7505 4.07628 19.4636 4.37718C21.0677 5.54765 22.4797 6.96092 23.6486 8.56614C23.9482 9.27757 24.0704 10.0511 24.0046 10.8202C24.0286 10.9394 24.0307 11.0621 24.0106 11.1821V25.0131C24.0392 26.2054 24.0059 27.3983 23.9106 28.5871C23.9346 29.4759 23.5919 30.3354 22.963 30.9639C22.3341 31.5924 21.4743 31.9346 20.5856 31.9101C19.4465 32.0028 18.3033 32.0361 17.1606 32.0101L17.0096 32.0131ZM7.65757 6.10008C7.22465 6.02275 6.78123 6.16221 6.47044 6.47337C6.15959 6.78459 6.02073 7.22813 6.09861 7.66105C6.01555 8.40703 6.00956 9.51603 6.00956 11.011V25.011C6.00956 26.511 6.01457 27.617 6.09855 28.363C6.02122 28.7959 6.16063 29.2393 6.47191 29.55C6.78318 29.8606 7.22685 29.9993 7.65959 29.921C8.4055 30.005 9.51451 30.011 11.0095 30.011H17.0795C18.5335 30.011 19.6265 30.004 20.3595 29.921C20.7922 29.9983 21.2352 29.8594 21.5462 29.5489C21.8572 29.2385 21.997 28.7958 21.9206 28.363C22.0045 27.617 22.0095 26.508 22.0095 25.011V12.0131H17.0095C16.4572 12.0131 16.0095 11.5654 16.0095 11.0131V6.0131H11.0095C9.50956 6.0131 8.40355 6.01909 7.65757 6.10313V6.10008ZM18.0096 10.0131H21.9856C21.9806 9.82213 21.9374 9.63408 21.8586 9.46013C20.8863 8.24168 19.7819 7.13493 18.5655 6.16014C18.3904 6.08153 18.2015 6.03801 18.0095 6.03209L18.0096 10.0131ZM8.98155 27.0131C8.4293 27.0054 7.9879 26.5515 7.99553 25.9993C8.00316 25.4471 8.45695 25.0055 9.0092 25.0131H19.0386C19.3958 25.0158 19.7245 25.2088 19.9008 25.5196C20.0771 25.8304 20.0743 26.2115 19.8933 26.5196C19.7124 26.8277 19.3808 27.0158 19.0235 27.0131H8.98155ZM8.98155 23.0131C8.4293 23.0054 7.9879 22.5515 7.99553 21.9993C8.00316 21.4471 8.45695 21.0055 9.0092 21.0131H19.0386C19.3959 21.0183 19.7232 21.2137 19.8974 21.5257C20.0715 21.8376 20.066 22.2189 19.8829 22.5257C19.6997 22.8324 19.3669 23.0183 19.0096 23.0131H8.98155ZM8.98155 19.0131C8.4293 19.0054 7.9879 18.5515 7.99553 17.9992C8.00316 17.4471 8.45695 17.0055 9.0092 17.0131H19.0386C19.5907 17.0171 20.0352 17.4679 20.0314 18.0201C20.0275 18.5723 19.5768 19.0169 19.0245 19.0131H8.98155Z" fill="#B7FF6F"/>
<path d="M16.5 5.5H7L5.5 6L5 25L6 31H21L23 28.5L22.5 11H17L16.5 5.5Z" fill="#B7FF6F"/>
<path fill-rule="evenodd" clip-rule="evenodd" d="M8.98612 27.0001C8.43387 26.9923 7.99247 26.5385 8.0001 25.9862C8.00773 25.4341 8.46152 24.9925 9.01377 25.0001H19.0431C19.4004 25.0028 19.7291 25.1958 19.9054 25.5066C20.0817 25.8174 20.0788 26.1985 19.8979 26.5066C19.717 26.8147 19.3854 27.0028 19.0281 27.0001H8.98612ZM8.98612 23.0001C8.43387 22.9923 7.99247 22.5385 8.0001 21.9862C8.00773 21.4341 8.46152 20.9925 9.01377 21.0001H19.0431C19.4004 21.0053 19.7278 21.2007 19.902 21.5127C20.0761 21.8246 20.0705 22.2058 19.8874 22.5127C19.7043 22.8194 19.3714 23.0053 19.0141 23.0001H8.98612ZM8.98612 19.0001C8.43387 18.9923 7.99247 18.5385 8.0001 17.9862C8.00773 17.4341 8.46152 16.9925 9.01377 17.0001H19.0431C19.5953 17.0041 20.0398 17.4549 20.0359 18.0071C20.0321 18.5593 19.5813 19.0039 19.0291 19.0001H8.98612Z" fill="white"/>
</svg>
