<svg width="35" height="34" viewBox="0 0 35 34" fill="none" xmlns="http://www.w3.org/2000/svg">
<path fill-rule="evenodd" clip-rule="evenodd" d="M18.0329 4.42566C18.0009 4.42566 17.9689 4.42566 17.9329 4.42566H17.9249C17.6437 4.44257 17.3826 4.57721 17.2059 4.79663L5.32491 15.4896C5.05931 15.729 4.94164 16.0918 5.01613 16.4415C5.09066 16.7911 5.34609 17.0744 5.68615 17.1846C6.02623 17.2949 6.39928 17.2153 6.66475 16.9758L6.99489 16.6757V25.4357C6.9804 26.0503 6.99874 26.6651 7.04988 27.2777C7.04985 28.4374 7.99001 29.3776 9.14977 29.3776C9.765 29.4301 10.3826 29.4495 10.9999 29.4357H11.9999C12.6151 29.4503 13.2306 29.4319 13.8439 29.3807C15.0037 29.3807 15.9439 28.4405 15.9439 27.2807C15.9955 26.6671 16.0142 26.0512 15.9999 25.4357V23.4357C15.9999 22.6887 15.9999 22.1407 16.0409 21.8167C16.0497 21.7196 16.0675 21.6235 16.0939 21.5297C16.1877 21.5031 16.2838 21.4854 16.3808 21.4767C16.6999 21.4357 17.2519 21.4357 17.9999 21.4357C18.7479 21.4357 19.2999 21.4357 19.6189 21.4767C19.716 21.4853 19.8121 21.5031 19.9059 21.5297C19.9324 21.6235 19.9502 21.7195 19.9589 21.8167C19.9949 22.1406 19.9999 22.6887 19.9999 23.4357V25.4357C19.9852 26.0509 20.0035 26.6664 20.0548 27.2797C20.0548 28.4395 20.995 29.3797 22.1548 29.3796C22.7684 29.4312 23.3843 29.4499 23.9999 29.4357H24.9999C25.6151 29.4504 26.2306 29.432 26.8439 29.3807C27.4008 29.3807 27.935 29.1594 28.3288 28.7656C28.7226 28.3718 28.9439 27.8376 28.9439 27.2806C28.9954 26.6671 29.0141 26.0512 28.9999 25.4357L28.9999 16.6816L29.3299 16.9816C29.5953 17.2212 29.9683 17.3008 30.3084 17.1907C30.6485 17.0805 30.904 16.7972 30.9786 16.4476C31.0532 16.098 30.9356 15.7352 30.67 15.4958L18.7929 4.80261C18.6081 4.57166 18.3306 4.43439 18.0349 4.42761L18.0329 4.42566ZM17.9999 6.78265L26.3409 14.2886C26.7596 14.6676 26.9986 15.2059 26.9989 15.7706V25.4357C26.9989 26.1827 26.9989 26.7307 26.9579 27.0547C27.0019 27.1522 26.981 27.2667 26.9054 27.3422C26.8299 27.4178 26.7154 27.4387 26.6179 27.3947C26.2939 27.4317 25.7469 27.4357 24.9989 27.4357H23.9989C23.2519 27.4357 22.7039 27.4357 22.3799 27.3947C22.2828 27.3859 22.1868 27.3682 22.0929 27.3417C22.0664 27.2479 22.0486 27.1519 22.0399 27.0547C21.9999 26.7307 21.9999 26.1837 21.9999 25.4357V23.4357C22.0144 22.8212 21.996 22.2063 21.9449 21.5937C21.9449 20.4339 21.0047 19.4937 19.845 19.4937C18.6167 19.4207 17.3852 19.4207 16.1569 19.4937C14.9971 19.4937 14.0569 20.4339 14.0569 21.5937C14.0051 22.2062 13.9861 22.8211 13.9999 23.4357V25.4357C13.9999 26.1827 13.9999 26.7307 13.9589 27.0547C13.95 27.1517 13.9323 27.2478 13.9059 27.3417C13.8121 27.3682 13.716 27.3859 13.6189 27.3947C13.2949 27.4316 12.7479 27.4357 11.9999 27.4357H10.9999C10.2519 27.4357 9.70491 27.4357 9.38094 27.3947C9.28383 27.386 9.18773 27.3683 9.09395 27.3417C9.06746 27.2479 9.04973 27.1518 9.04097 27.0547C8.9999 26.7307 8.9999 26.1827 8.9999 25.4357V15.7717C8.9999 15.2054 9.24038 14.6653 9.66152 14.286L17.9999 6.78265Z" fill="#B7FF6F"/>
<path d="M28.4999 15.5L17.9999 5.5L7.99988 14.5V28L10.9999 28.5H14.4999V22L15.4999 20.5H17.4999L18.9999 20L20.4999 21L20.9999 21.5V27L22.4999 28.5L26.4999 29L27.9999 27.5L28.4999 15.5Z" fill="#B7FF6F"/>
</svg>
