<svg width="31" height="26" viewBox="0 0 31 26" fill="none" xmlns="http://www.w3.org/2000/svg">
<path fill-rule="evenodd" clip-rule="evenodd" d="M11.465 6H7C6.44775 6 6 6.44769 6 7V19C6 19.5523 6.44775 20 7 20H24C24.5522 20 25 19.5523 25 19V10C25 9.44769 24.5522 9 24 9H14C13.6658 9.00006 13.3535 8.83307 13.168 8.55499L11.465 6ZM14.5349 7H24C25.6569 7 27 8.34314 27 10V19C27 20.6569 25.6569 22 24 22H7C5.34314 22 4 20.6569 4 19V7C4 5.34314 5.34314 4 7 4H12C12.3342 3.99994 12.6465 4.16693 12.832 4.44501L14.5349 7Z" fill="#B7FF6F"/>
<path d="M12 5H6.5L5 6L4.5 18.5L6.5 21H25.5V9.5L24 8H13.5L12 5Z" fill="#B7FF6F"/>
</svg>
