<svg width="37" height="32" viewBox="0 0 37 32" fill="none" xmlns="http://www.w3.org/2000/svg">
<path fill-rule="evenodd" clip-rule="evenodd" d="M10.0139 4.01334C9.01304 3.9899 8.01169 4.01865 7.01389 4.09934C6.23545 4.08316 5.48411 4.3851 4.93333 4.93546C4.38267 5.48581 4.08018 6.23697 4.09592 7.01535C4.01499 8.01322 3.9863 9.01456 4.00986 10.0154V17.0154C4.00986 19.2654 3.86985 20.5963 4.64487 21.7423C5.05674 22.3013 5.66331 22.6853 6.34482 22.8183C6.90488 22.9289 7.4741 22.9858 8.04478 22.9883C8.05674 23.3493 8.06882 23.7043 8.10374 24.0113C8.0875 24.7898 8.3895 25.5412 8.9398 26.0919C9.49021 26.6426 10.2413 26.9451 11.0198 26.9294C11.5517 26.9894 12.1927 27.0044 12.9007 27.0094C12.9382 27.013 12.9761 27.0143 13.0138 27.0134L26.0139 27.0133C27.0147 27.0369 28.0161 27.0082 29.0139 26.9273C29.7923 26.943 30.5434 26.6405 31.0938 26.0898C31.6441 25.539 31.9461 24.7877 31.9299 24.0092C32.0106 23.0114 32.0393 22.0101 32.016 21.0093V17.0093C32.0163 16.9696 32.0143 16.9298 32.0099 16.8903C32.004 16.1843 31.99 15.5443 31.93 15.0133C31.9463 14.2348 31.6443 13.4834 31.094 12.9327C30.5436 12.382 29.7925 12.0795 29.014 12.0952C28.7051 12.0603 28.347 12.0492 27.985 12.0362C28.0049 11.953 28.014 11.8677 28.0121 11.7822C28.0311 10.9832 27.9708 10.1842 27.8319 9.39719C27.7093 8.70895 27.3337 8.09146 26.7789 7.66611C25.6339 6.86618 24.2889 7.00815 22.0149 7.00815H19.3608C18.3741 7.06418 17.3857 6.93149 16.4488 6.61716C16.0527 6.44821 15.7079 6.17819 15.4488 5.83408C14.9833 5.28226 14.3972 4.8447 13.7358 4.55515C12.5669 4.13815 11.3277 3.95303 10.0879 4.0101L10.0179 4.01016L10.0139 4.01334ZM10.0139 6.01334C11.0128 5.95731 12.0132 6.08994 12.9629 6.40433C13.3623 6.5715 13.7102 6.84171 13.9709 7.18735C14.4327 7.73758 15.0141 8.17502 15.6709 8.46634C16.8528 8.89163 18.1074 9.07755 19.3619 9.01334H22.0139C23.2271 8.92233 24.4472 9.02359 25.6289 9.31332C25.7289 9.38632 25.7909 9.43832 25.8749 9.82932C25.9778 10.4845 26.0229 11.1474 26.0099 11.8104C26.0096 11.8799 26.0166 11.9493 26.0309 12.0174L23.3589 12.0173C22.372 12.0732 21.3838 11.9405 20.4468 11.6263C20.0506 11.4572 19.7058 11.1872 19.4468 10.8432C18.9813 10.2914 18.3952 9.85385 17.7339 9.5643C16.5638 9.14731 15.3237 8.96219 14.0829 9.01932H14.0129C13.0121 8.99588 12.0107 9.02463 11.0129 9.10532C10.2345 9.08914 9.48313 9.39108 8.93235 9.94144C8.38169 10.4918 8.0792 11.243 8.09495 12.0213C8.01414 13.0191 7.98545 14.0205 8.00901 15.0213L8.00889 20.9903C7.59897 20.9838 7.19004 20.9453 6.78599 20.8753C6.41489 20.7903 6.3729 20.7373 6.2999 20.6294C6.01804 19.4461 5.92161 18.2262 6.01401 17.0133L6.01389 10.0133C6.01389 8.76633 6.01987 7.84531 6.08787 7.24033C6.15586 6.63535 6.27292 6.42832 6.3519 6.34934C6.43088 6.27036 6.63596 6.15537 7.24094 6.08731C7.84592 6.01926 8.76792 6.01334 10.0139 6.01334ZM14.0139 11.0133C15.0128 10.9573 16.0132 11.0899 16.9629 11.4043C17.3623 11.5715 17.7102 11.8417 17.9709 12.1873C18.4327 12.7376 19.0141 13.175 19.6709 13.4663C20.8528 13.8916 22.1074 14.0775 23.3619 14.0133H26.0139C27.2608 14.0133 28.1819 14.0193 28.7879 14.0873C29.394 14.1553 29.6 14.2723 29.6789 14.3513C29.7579 14.4303 29.8729 14.6343 29.9409 15.2403C30.0089 15.8462 30.0149 16.7683 30.0149 18.0133V21.0133C30.0149 22.2592 30.0089 23.1813 29.9409 23.7863C29.8729 24.3913 29.7579 24.5963 29.6789 24.6753C29.6 24.7542 29.3939 24.8753 28.7879 24.9392C28.182 25.0032 27.2619 25.0132 26.0139 25.0132H14.0139C12.7669 25.0132 11.8459 25.0072 11.2409 24.9392C10.636 24.8712 10.4289 24.7542 10.35 24.6753C10.271 24.5963 10.156 24.3913 10.088 23.7863C10.02 23.1813 10.0139 22.2593 10.0139 21.0133V15.0133C10.0139 13.7663 10.0199 12.8453 10.0879 12.2403C10.1559 11.6353 10.2729 11.4283 10.3519 11.3493C10.4309 11.2704 10.636 11.1554 11.2409 11.0873C11.8459 11.0193 12.7679 11.0133 14.0139 11.0133Z" fill="#B7FF6F"/>
<path d="M17 10.5L12 10L9 11V23L10 26L28 26.5L31 25V15.5L29.5 13.5L24.5 13L20 12.5L17 10.5Z" fill="#B7FF6F"/>
</svg>
